<svg xmlns="http://www.w3.org/2000/svg" viewBox="0 0 900 200" width="900" height="200" role="img" aria-label="Stack">
<rect width="900" height="200" fill="#ffffff"/>
<rect x="0" y="0" width="293" height="200" fill="#ffffff" stroke="#d0d7d5" stroke-width="1"/>
<rect x="0" y="0" width="293" height="32" fill="#f0f5f3"/>
<line x1="0" y1="32" x2="293" y2="32" stroke="#d0d7d5" stroke-width="1"/>
<text x="16" y="21" font-family="ui-monospace, monospace" font-size="13" fill="#047857" letter-spacing="2.4">MODELLING</text>
<text x="16" y="60" font-family="ui-monospace, monospace" font-size="14.5" fill="#1a1f1e">pytorch</text>
<text x="16" y="87" font-family="ui-monospace, monospace" font-size="14.5" fill="#1a1f1e">scikit-learn</text>
<text x="16" y="114" font-family="ui-monospace, monospace" font-size="14.5" fill="#1a1f1e">xgboost</text>
<text x="16" y="141" font-family="ui-monospace, monospace" font-size="14.5" fill="#1a1f1e">statsmodels</text>
<text x="16" y="168" font-family="ui-monospace, monospace" font-size="14.5" fill="#1a1f1e">pandas  numpy  scipy</text>
<rect x="303" y="0" width="293" height="200" fill="#ffffff" stroke="#d0d7d5" stroke-width="1"/>
<rect x="303" y="0" width="293" height="32" fill="#f0f5f3"/>
<line x1="303" y1="32" x2="596" y2="32" stroke="#d0d7d5" stroke-width="1"/>
<text x="319" y="21" font-family="ui-monospace, monospace" font-size="13" fill="#047857" letter-spacing="2.4">RETRIEVAL</text>
<text x="319" y="60" font-family="ui-monospace, monospace" font-size="14.5" fill="#1a1f1e">faiss</text>
<text x="319" y="87" font-family="ui-monospace, monospace" font-size="14.5" fill="#1a1f1e">neo4j</text>
<text x="319" y="114" font-family="ui-monospace, monospace" font-size="14.5" fill="#1a1f1e">langgraph</text>
<text x="319" y="141" font-family="ui-monospace, monospace" font-size="14.5" fill="#1a1f1e">chromadb</text>
<text x="319" y="168" font-family="ui-monospace, monospace" font-size="14.5" fill="#1a1f1e">onnx  ragas</text>
<rect x="606" y="0" width="293" height="200" fill="#ffffff" stroke="#d0d7d5" stroke-width="1"/>
<rect x="606" y="0" width="293" height="32" fill="#f0f5f3"/>
<line x1="606" y1="32" x2="899" y2="32" stroke="#d0d7d5" stroke-width="1"/>
<text x="622" y="21" font-family="ui-monospace, monospace" font-size="13" fill="#047857" letter-spacing="2.4">SERVING</text>
<text x="622" y="60" font-family="ui-monospace, monospace" font-size="14.5" fill="#1a1f1e">fastapi</text>
<text x="622" y="87" font-family="ui-monospace, monospace" font-size="14.5" fill="#1a1f1e">docker</text>
<text x="622" y="114" font-family="ui-monospace, monospace" font-size="14.5" fill="#1a1f1e">postgresql</text>
<text x="622" y="141" font-family="ui-monospace, monospace" font-size="14.5" fill="#1a1f1e">prometheus</text>
<text x="622" y="168" font-family="ui-monospace, monospace" font-size="14.5" fill="#1a1f1e">grafana  nginx</text>
</svg>