<svg xmlns="http://www.w3.org/2000/svg" viewBox="0 0 1200 158" width="1200" height="158" role="img" aria-label="Stack">
<rect width="1200" height="158" fill="#0d0604"/>
<rect x="0" y="0" width="392" height="158" fill="#100705" stroke="#47241a" stroke-width="1"/>
<rect x="0" y="0" width="392" height="28" fill="#160a06"/>
<line x1="0" y1="28" x2="392" y2="28" stroke="#47241a" stroke-width="1"/>
<text x="18" y="19" font-family="ui-monospace, monospace" font-size="10" fill="#ffb89f" letter-spacing="2.6">MODELLING</text>
<text x="18" y="54" font-family="ui-monospace, monospace" font-size="11.5" fill="#c08a72">pytorch</text>
<text x="18" y="75" font-family="ui-monospace, monospace" font-size="11.5" fill="#c08a72">scikit-learn</text>
<text x="18" y="96" font-family="ui-monospace, monospace" font-size="11.5" fill="#c08a72">xgboost</text>
<text x="18" y="117" font-family="ui-monospace, monospace" font-size="11.5" fill="#c08a72">statsmodels</text>
<text x="18" y="138" font-family="ui-monospace, monospace" font-size="11.5" fill="#c08a72">pandas  numpy  scipy</text>
<rect x="404" y="0" width="392" height="158" fill="#100705" stroke="#47241a" stroke-width="1"/>
<rect x="404" y="0" width="392" height="28" fill="#160a06"/>
<line x1="404" y1="28" x2="796" y2="28" stroke="#47241a" stroke-width="1"/>
<text x="422" y="19" font-family="ui-monospace, monospace" font-size="10" fill="#ffb89f" letter-spacing="2.6">RETRIEVAL</text>
<text x="422" y="54" font-family="ui-monospace, monospace" font-size="11.5" fill="#c08a72">faiss</text>
<text x="422" y="75" font-family="ui-monospace, monospace" font-size="11.5" fill="#c08a72">neo4j</text>
<text x="422" y="96" font-family="ui-monospace, monospace" font-size="11.5" fill="#c08a72">langgraph</text>
<text x="422" y="117" font-family="ui-monospace, monospace" font-size="11.5" fill="#c08a72">chromadb</text>
<text x="422" y="138" font-family="ui-monospace, monospace" font-size="11.5" fill="#c08a72">onnx  ragas</text>
<rect x="808" y="0" width="392" height="158" fill="#100705" stroke="#47241a" stroke-width="1"/>
<rect x="808" y="0" width="392" height="28" fill="#160a06"/>
<line x1="808" y1="28" x2="1200" y2="28" stroke="#47241a" stroke-width="1"/>
<text x="826" y="19" font-family="ui-monospace, monospace" font-size="10" fill="#ffb89f" letter-spacing="2.6">SERVING</text>
<text x="826" y="54" font-family="ui-monospace, monospace" font-size="11.5" fill="#c08a72">fastapi</text>
<text x="826" y="75" font-family="ui-monospace, monospace" font-size="11.5" fill="#c08a72">docker</text>
<text x="826" y="96" font-family="ui-monospace, monospace" font-size="11.5" fill="#c08a72">postgresql</text>
<text x="826" y="117" font-family="ui-monospace, monospace" font-size="11.5" fill="#c08a72">prometheus</text>
<text x="826" y="138" font-family="ui-monospace, monospace" font-size="11.5" fill="#c08a72">grafana  nginx</text>
</svg>