<svg xmlns="http://www.w3.org/2000/svg" viewBox="0 0 900 176" width="900" height="176" role="img" aria-label="Stack">
<rect width="900" height="176" fill="#0d0604"/>
<rect x="0" y="0" width="293" height="176" fill="#100705" stroke="#47241a" stroke-width="1"/>
<rect x="0" y="0" width="293" height="30" fill="#160a06"/>
<line x1="0" y1="30" x2="293" y2="30" stroke="#47241a" stroke-width="1"/>
<text x="16" y="20" font-family="ui-monospace, monospace" font-size="11.5" fill="#ffb89f" letter-spacing="2.4">MODELLING</text>
<text x="16" y="56" font-family="ui-monospace, monospace" font-size="13" fill="#c08a72">pytorch</text>
<text x="16" y="80" font-family="ui-monospace, monospace" font-size="13" fill="#c08a72">scikit-learn</text>
<text x="16" y="104" font-family="ui-monospace, monospace" font-size="13" fill="#c08a72">xgboost</text>
<text x="16" y="128" font-family="ui-monospace, monospace" font-size="13" fill="#c08a72">statsmodels</text>
<text x="16" y="152" font-family="ui-monospace, monospace" font-size="13" fill="#c08a72">pandas  numpy  scipy</text>
<rect x="303" y="0" width="293" height="176" fill="#100705" stroke="#47241a" stroke-width="1"/>
<rect x="303" y="0" width="293" height="30" fill="#160a06"/>
<line x1="303" y1="30" x2="596" y2="30" stroke="#47241a" stroke-width="1"/>
<text x="319" y="20" font-family="ui-monospace, monospace" font-size="11.5" fill="#ffb89f" letter-spacing="2.4">RETRIEVAL</text>
<text x="319" y="56" font-family="ui-monospace, monospace" font-size="13" fill="#c08a72">faiss</text>
<text x="319" y="80" font-family="ui-monospace, monospace" font-size="13" fill="#c08a72">neo4j</text>
<text x="319" y="104" font-family="ui-monospace, monospace" font-size="13" fill="#c08a72">langgraph</text>
<text x="319" y="128" font-family="ui-monospace, monospace" font-size="13" fill="#c08a72">chromadb</text>
<text x="319" y="152" font-family="ui-monospace, monospace" font-size="13" fill="#c08a72">onnx  ragas</text>
<rect x="606" y="0" width="293" height="176" fill="#100705" stroke="#47241a" stroke-width="1"/>
<rect x="606" y="0" width="293" height="30" fill="#160a06"/>
<line x1="606" y1="30" x2="899" y2="30" stroke="#47241a" stroke-width="1"/>
<text x="622" y="20" font-family="ui-monospace, monospace" font-size="11.5" fill="#ffb89f" letter-spacing="2.4">SERVING</text>
<text x="622" y="56" font-family="ui-monospace, monospace" font-size="13" fill="#c08a72">fastapi</text>
<text x="622" y="80" font-family="ui-monospace, monospace" font-size="13" fill="#c08a72">docker</text>
<text x="622" y="104" font-family="ui-monospace, monospace" font-size="13" fill="#c08a72">postgresql</text>
<text x="622" y="128" font-family="ui-monospace, monospace" font-size="13" fill="#c08a72">prometheus</text>
<text x="622" y="152" font-family="ui-monospace, monospace" font-size="13" fill="#c08a72">grafana  nginx</text>
</svg>